HIERARCHY
ROOT Hips
{
	OFFSET 0.000000 0.000000 0.000000
	CHANNELS 6 Xposition Yposition Zposition Zrotation Xrotation Yrotation
	JOINT RightUpLeg
	{
		OFFSET -10.795800 0.000000 0.000000
		CHANNELS 3 Zrotation Xrotation Yrotation
		JOINT RightLeg
		{
			OFFSET 0.000000 -39.557900 0.000000
			CHANNELS 3 Zrotation Xrotation Yrotation
			JOINT RightFoot
			{
				OFFSET 0.000000 -40.613400 0.000000
				CHANNELS 3 Zrotation Xrotation Yrotation
				JOINT RightToe
				{
					OFFSET 0.000000 -1.003500 12.392200
					CHANNELS 3 Zrotation Xrotation Yrotation
					JOINT RightToeEnd
					{
						OFFSET 0.000000 1.088300 5.767000
						CHANNELS 3 Zrotation Xrotation Yrotation
						End Site
						{
						    OFFSET 0.000000 0.927200 4.913300
						}
					}
				}
			}
		}
	}
	JOINT LeftUpLeg
	{
		OFFSET 10.795800 0.000000 0.000000
		CHANNELS 3 Zrotation Xrotation Yrotation
		JOINT LeftLeg
		{
			OFFSET 0.000000 -39.557900 0.000000
			CHANNELS 3 Zrotation Xrotation Yrotation
			JOINT LeftFoot
			{
				OFFSET 0.000000 -40.613400 0.000000
				CHANNELS 3 Zrotation Xrotation Yrotation
				JOINT LeftToe
				{
					OFFSET 0.000000 -1.003500 12.392200
					CHANNELS 3 Zrotation Xrotation Yrotation
					JOINT LeftToeEnd
					{
						OFFSET 0.000000 1.088300 5.767000
						CHANNELS 3 Zrotation Xrotation Yrotation
						End Site
						{
						    OFFSET 0.000000 0.927200 4.913300
						}
					}
				}
			}
		}
	}
	JOINT Spine
	{
		OFFSET 0.000000 15.108100 0.000000
		CHANNELS 3 Zrotation Xrotation Yrotation
		JOINT Spine1
		{
			OFFSET 0.000000 12.828000 0.000000
			CHANNELS 3 Zrotation Xrotation Yrotation
			JOINT Spine2
			{
				OFFSET 0.000000 11.155500 0.000000
				CHANNELS 3 Zrotation Xrotation Yrotation
				JOINT LeftShoulder
				{
					OFFSET 2.000000 11.155500 0.000000
					CHANNELS 3 Zrotation Xrotation Yrotation
					JOINT LeftArm
					{
						OFFSET 15.139800 0.000000 0.000000
						CHANNELS 3 Zrotation Xrotation Yrotation
						JOINT LeftForeArm
						{
							OFFSET 0.000000 -26.627300 0.000000
							CHANNELS 3 Zrotation Xrotation Yrotation
							JOINT LeftHand
							{
								OFFSET 0.000000 -24.932400 0.000000
								CHANNELS 3 Zrotation Xrotation Yrotation
								JOINT LeftFinger0
								{
									OFFSET 0.000000 -8.640100 0.000000
									CHANNELS 3 Zrotation Xrotation Yrotation
									End Site
									{
									    OFFSET 0.000000 -5.000000 0.000000
									}
								}
							}
						}
					}
				}
				JOINT RightShoulder
				{
					OFFSET -2.000000 11.155500 0.000000
					CHANNELS 3 Zrotation Xrotation Yrotation
					JOINT RightArm
					{
						OFFSET -15.139800 0.000000 0.000000
						CHANNELS 3 Zrotation Xrotation Yrotation
						JOINT RightForeArm
						{
							OFFSET 0.000000 -26.627300 0.000000
							CHANNELS 3 Zrotation Xrotation Yrotation
							JOINT RightHand
							{
								OFFSET 0.000000 -24.932400 0.000000
								CHANNELS 3 Zrotation Xrotation Yrotation
								JOINT RightFinger0
								{
									OFFSET 0.000000 -8.640100 0.000000
									CHANNELS 3 Zrotation Xrotation Yrotation
									End Site
									{
									    OFFSET 0.000000 -5.000000 0.000000
									}
								}
							}
						}
					}
				}
				JOINT Neck
				{
					OFFSET 0.000000 11.155500 0.000000
					CHANNELS 3 Zrotation Xrotation Yrotation
					JOINT Head
					{
						OFFSET 0.000000 10.940000 0.000000
						CHANNELS 3 Zrotation Xrotation Yrotation
						JOINT HeadTip
						{
							OFFSET 0.000000 10.000000 0.000000
							CHANNELS 3 Zrotation Xrotation Yrotation
							End Site
							{
							    OFFSET 0.000000 5.000000 0.000000
							}
						}
					}
				}
			}
		}
	}
}
MOTION
Frames:	7
Frame Time:	0.033332
80.186600 86.276200 -16.817900 -0.023988 -3.372450 2.999075 -3.363058 1.541528 -7.438679 0.000000 7.318008 -0.000000 12.506157 3.586205 -14.872477 -0.000000 2.613132 -0.000000 -0.000000 -0.000000 0.000000 1.559138 1.659896 2.804003 0.000000 7.261760 0.000000 -8.402468 7.358380 17.764585 -0.000000 -7.690514 0.000000 0.000000 0.000000 -0.000000 -1.820014 3.136494 -1.237453 0.000000 0.753737 0.000000 0.000000 0.000000 -0.000000 3.125460 -0.000000 7.258417 70.681495 -8.985065 14.872669 -0.000000 -17.229229 -0.000000 -8.386022 13.261859 -29.494489 -0.000000 -0.000000 0.000000 -4.378874 0.000000 -8.940389 -68.885762 -9.890700 -21.763075 -0.000036 -13.311875 -0.000004 1.737931 6.839019 17.041875 0.000000 0.000000 0.000000 0.000000 0.000000 -0.000000 4.613104 9.358902 0.313605 0.000000 -0.000000 -0.000000 
80.190600 86.276400 -16.811500 -0.027871 -3.355733 2.985415 -3.359900 1.534162 -7.454000 0.000000 7.300091 -0.000000 12.487628 3.644491 -14.866222 -0.000000 2.500661 -0.000000 -0.000000 0.000000 -0.000000 1.557250 1.660312 2.788032 -0.000000 7.242952 0.000000 -8.358822 7.399121 17.803581 -0.000000 -7.762320 -0.000000 -0.000000 -0.000000 -0.000000 -1.819496 3.143143 -1.220816 -0.000000 0.732593 -0.000000 0.000000 0.000000 -0.000000 3.135137 -0.000000 7.269491 70.715885 -8.999078 14.842139 0.000000 -17.210830 -0.000000 -8.351402 13.229527 -29.558286 -0.000000 0.000000 -0.000000 -4.402687 0.000000 -8.922863 -68.889972 -9.868968 -21.803121 -0.000036 -13.300125 -0.000004 1.646722 6.767832 17.031587 -0.000000 0.000000 0.000000 0.000000 0.000000 -0.000000 4.611012 9.423055 0.248314 0.000000 -0.000000 -0.000000 
80.194100 86.277100 -16.807300 -0.026681 -3.334530 2.964764 -3.369982 1.516221 -7.416861 -0.000000 7.298170 -0.000000 12.538636 3.609946 -14.855525 -0.000000 2.551615 -0.000000 0.000000 0.000000 -0.000000 1.551512 1.655378 2.811427 -0.000000 7.223049 -0.000000 -8.360815 7.402595 17.801955 -0.000000 -7.753511 -0.000000 -0.000000 0.000000 -0.000000 -1.821913 3.145614 -1.195251 0.000000 0.712590 -0.000000 0.000000 0.000000 -0.000000 3.150505 0.000000 7.264269 70.733466 -8.980874 14.879880 -0.000000 -17.232212 0.000000 -8.340798 13.232269 -29.522185 0.000000 -0.000000 -0.000000 -4.428897 -0.000000 -8.921544 -68.901872 -9.881897 -21.876699 -0.000036 -13.283697 -0.000004 1.623068 6.705065 17.040334 -0.000000 0.000000 0.000000 0.000000 0.000000 -0.000000 4.586776 9.474961 0.171119 -0.000000 0.000000 -0.000000 
80.197300 86.278600 -16.801000 -0.023547 -3.325934 2.952514 -3.375663 1.505719 -7.409338 0.000000 7.302704 0.000000 12.526208 3.643555 -14.851051 0.000000 2.472517 -0.000000 -0.000000 0.000000 -0.000000 1.547169 1.664119 2.845274 -0.000000 7.201104 -0.000000 -8.366674 7.425706 17.782369 0.000000 -7.807889 -0.000000 0.000000 0.000000 -0.000000 -1.826631 3.164781 -1.183231 0.000000 0.691873 -0.000000 0.000000 0.000000 -0.000000 3.169538 -0.000000 7.261417 70.785060 -8.973327 14.777648 0.000000 -17.228063 -0.000000 -8.392521 13.240511 -29.376906 -0.000000 0.000000 0.000000 -4.462989 0.000000 -8.904145 -68.899955 -9.879629 -21.893643 -0.000036 -13.292177 -0.000004 1.677628 6.768115 17.151580 0.000000 0.000000 0.000000 0.000000 0.000000 -0.000000 4.555824 9.513303 0.136744 0.000000 0.000000 0.000000 
80.197100 86.279900 -16.797300 -0.018943 -3.324295 2.959127 -3.378535 1.516558 -7.449571 -0.000000 7.287229 -0.000000 12.497796 3.662273 -14.829320 0.000000 2.458916 -0.000000 0.000000 0.000000 -0.000000 1.540388 1.697853 2.777817 0.000000 7.134644 -0.000000 -8.397211 7.445001 17.839415 -0.000000 -7.789318 -0.000000 0.000000 0.000000 -0.000000 -1.832444 3.205745 -1.197422 0.000000 0.658506 -0.000000 0.000000 0.000000 0.000000 3.178137 -0.000000 7.253636 70.833604 -8.969911 14.863766 0.000000 -17.193022 -0.000000 -8.381975 13.221149 -29.553680 0.000000 0.000000 -0.000000 -4.483294 0.000000 -8.883697 -68.920476 -9.870740 -21.825671 -0.000036 -13.331096 -0.000004 1.701446 6.737405 17.099483 0.000000 0.000000 -0.000000 0.000000 0.000000 0.000000 4.523994 9.535056 0.159856 0.000000 -0.000000 -0.000000 
80.198800 86.283100 -16.794600 -0.022610 -3.307220 2.981999 -3.372482 1.510745 -7.455715 0.000000 7.275358 -0.000000 12.559496 3.615041 -14.864521 0.000000 2.594266 -0.000000 0.000000 0.000000 -0.000000 1.542378 1.687653 2.794171 -0.000000 7.117947 -0.000000 -8.381791 7.459793 17.804384 -0.000000 -7.759314 0.000000 0.000000 0.000000 -0.000000 -1.828451 3.236806 -1.209750 0.000000 0.617296 0.000000 0.000000 0.000000 -0.000000 3.200506 0.000000 7.241612 70.846760 -8.969079 14.931320 -0.000000 -17.202684 -0.000000 -8.359622 13.218122 -29.560778 0.000000 -0.000000 -0.000000 -4.507230 -0.000000 -8.887438 -68.917610 -9.902694 -21.970498 -0.000036 -13.342654 -0.000004 1.699197 6.722489 17.160517 -0.000000 0.000000 0.000000 0.000000 0.000000 -0.000000 4.528076 9.539960 0.188560 -0.000000 0.000000 -0.000000 
80.201100 86.284700 -16.799700 -0.010588 -3.249649 2.985996 -3.394138 1.454955 -7.438364 -0.000000 7.270524 -0.000000 12.506284 3.653456 -14.851902 -0.000000 2.537165 -0.000000 -0.000000 0.000000 -0.000000 1.524898 1.655472 2.780350 0.000000 7.058346 0.000000 -8.431122 7.462411 17.814358 0.000000 -7.714786 -0.000000 -0.000000 -0.000000 -0.000000 -1.846203 3.215272 -1.199515 -0.000000 0.589003 0.000000 -0.000000 0.000000 -0.000000 3.212048 -0.000000 7.239176 70.886926 -9.000282 14.896424 0.000000 -17.192409 -0.000000 -8.348902 13.178258 -29.458648 -0.000000 0.000000 0.000000 -4.495787 -0.000000 -8.905363 -68.971523 -9.908311 -21.787639 -0.000036 -13.395317 -0.000004 1.704842 6.740080 16.981300 -0.000000 0.000000 0.000000 -0.000000 0.000000 -0.000000 4.518701 9.524395 0.185649 -0.000000 -0.000000 0.000000 
